<svg width="377" height="290" viewBox="0 0 377 290" fill="none" xmlns="http://www.w3.org/2000/svg">
<path d="M277.362 158.501L376 1L117.045 40.5579C114.09 41.0094 113.541 45.0336 116.268 46.2597L180.113 74.9664L188.39 147.563L234.07 121.538L269.478 159.269C271.722 161.66 275.621 161.28 277.362 158.501Z" fill="#F6EAE6"/>
<path d="M376 1L277.362 158.501C275.621 161.28 271.722 161.66 269.478 159.269L234.07 121.538M376 1L217.359 103.731M376 1L180.113 74.9664M376 1L117.045 40.5579C114.09 41.0094 113.541 45.0336 116.268 46.2597L180.113 74.9664M217.359 103.731L188.39 147.563M217.359 103.731L234.07 121.538M180.113 74.9664L188.39 147.563M188.39 147.563L234.07 121.538" stroke="black"/>
<path d="M114.913 164L106.679 166.747M87.4643 173.615L70.9949 180.484M53.1531 187.352L40.801 194.22M21.5867 205.209L9.23471 216.198M1.00001 232.681L1.00001 238.18C1.00001 242.501 3.03371 246.571 6.48981 249.165V249.165M21.5867 261.527L22.9762 262.57C25.6663 264.59 28.8222 265.898 32.152 266.374L36.6837 267.022M58.6429 265.648L73.7398 264.275M95.699 258.78L108.051 256.033M127.265 251.912L143.735 249.165M165.694 246.418L179.418 246.418M202.75 249.165L216.474 253.286M235.689 260.154L249.413 268.396M263.138 280.758L270 289" stroke="black"/>
</svg>
