<svg width="25" height="25" viewBox="0 0 25 25" fill="none" xmlns="http://www.w3.org/2000/svg">
<path d="M5.85938 10.1561C5.75577 10.1561 5.65642 10.1972 5.58316 10.2705C5.50991 10.3437 5.46875 10.4431 5.46875 10.5467V20.7029C5.46875 20.9186 5.64375 21.0936 5.85938 21.0936H19.1406C19.2442 21.0936 19.3436 21.0524 19.4168 20.9792C19.4901 20.9059 19.5312 20.8065 19.5312 20.7029V10.5467C19.5312 10.4431 19.4901 10.3437 19.4168 10.2705C19.3436 10.1972 19.2442 10.1561 19.1406 10.1561H17.5781C17.2673 10.1561 16.9693 10.0326 16.7495 9.81284C16.5297 9.59307 16.4062 9.295 16.4062 8.98419C16.4062 8.67339 16.5297 8.37532 16.7495 8.15555C16.9693 7.93578 17.2673 7.81232 17.5781 7.81232H19.1406C20.65 7.81232 21.875 9.03732 21.875 10.5467V20.7029C21.875 21.4281 21.5869 22.1236 21.0741 22.6364C20.5613 23.1492 19.8658 23.4373 19.1406 23.4373H5.85938C5.13417 23.4373 4.43867 23.1492 3.92588 22.6364C3.41309 22.1236 3.125 21.4281 3.125 20.7029V10.5467C3.125 9.03732 4.35 7.81232 5.85938 7.81232H7.42188C7.73268 7.81232 8.03075 7.93578 8.25052 8.15555C8.47028 8.37532 8.59375 8.67339 8.59375 8.98419C8.59375 9.295 8.47028 9.59307 8.25052 9.81284C8.03075 10.0326 7.73268 10.1561 7.42188 10.1561H5.85938ZM12.2234 0.276382C12.2597 0.240004 12.3028 0.211143 12.3503 0.19145C12.3977 0.171758 12.4486 0.161621 12.5 0.161621C12.5514 0.161621 12.6023 0.171758 12.6497 0.19145C12.6972 0.211143 12.7403 0.240004 12.7766 0.276382L17.3016 4.80138C17.3563 4.85601 17.3936 4.92568 17.4088 5.00155C17.4239 5.07741 17.4162 5.15606 17.3865 5.22753C17.3569 5.29899 17.3068 5.36005 17.2424 5.40296C17.178 5.44587 17.1024 5.46871 17.025 5.46857H13.6719V14.4529C13.6719 14.7637 13.5484 15.0618 13.3286 15.2816C13.1089 15.5014 12.8108 15.6248 12.5 15.6248C12.1892 15.6248 11.8911 15.5014 11.6714 15.2816C11.4516 15.0618 11.3281 14.7637 11.3281 14.4529V5.46857H7.975C7.89764 5.46871 7.82198 5.44587 7.75761 5.40296C7.69325 5.36005 7.64307 5.29899 7.61345 5.22753C7.58383 5.15606 7.57609 5.07741 7.59122 5.00155C7.60635 4.92568 7.64367 4.85601 7.69844 4.80138L12.2234 0.276382Z" fill="black"/>
</svg>
